HIERARCHY
ROOT SpineBase
{
  OFFSET 0.000000 0.000000 0.000000
  CHANNELS 6 Xposition Yposition Zposition Zrotation Xrotation Yrotation
  JOINT SpineMid
  {
    OFFSET 0.000000 30.607690 0.000000
    CHANNELS 3 Zrotation Xrotation Yrotation
    JOINT SpineShoulder
    {
      OFFSET 0.034022 22.767401 -0.733399
      CHANNELS 3 Zrotation Xrotation Yrotation
      JOINT Neck
      {
        OFFSET 0.037028 7.539698 -0.556727
        CHANNELS 3 Zrotation Xrotation Yrotation
        JOINT Head
        {
          OFFSET -3.921640 13.566274 -1.356044
          CHANNELS 3 Zrotation Xrotation Yrotation
          End Site
          {
            OFFSET 0 0 0
          }
        }
      }
      JOINT ShoulderLeft
      {
        OFFSET -16.779832 -4.031060 6.023141
        CHANNELS 3 Zrotation Xrotation Yrotation
        JOINT ElbowLeft
        {
          OFFSET -2.051113 -27.147604 1.703690
          CHANNELS 3 Zrotation Xrotation Yrotation
          JOINT WristLeft
          {
            OFFSET -0.543844 -20.539465 -7.209416
            CHANNELS 3 Zrotation Xrotation Yrotation
            JOINT HandLeft
            {
              OFFSET 0.487080 -3.533172 -0.349400
              CHANNELS 3 Zrotation Xrotation Yrotation
              JOINT HandTipLeft
              {
                OFFSET 1.441340 -5.592445 -1.025202
                CHANNELS 3 Zrotation Xrotation Yrotation
                End Site
                {
                  OFFSET 0 0 0
                }
              }
              JOINT ThumbLeft
              {
                OFFSET 3.402935 1.532399 -3.963599
                CHANNELS 3 Zrotation Xrotation Yrotation
                End Site
                {
                  OFFSET 0 0 0
                }
              }
            }
          }
        }
      }
      JOINT ShoulderRight
      {
        OFFSET 13.545009 -2.952224 -7.916262
        CHANNELS 3 Zrotation Xrotation Yrotation
        JOINT ElbowRight
        {
          OFFSET 6.915032 -27.373950 -0.028865
          CHANNELS 3 Zrotation Xrotation Yrotation
          JOINT WristRight
          {
            OFFSET 2.157746 -23.409396 -4.636838
            CHANNELS 3 Zrotation Xrotation Yrotation
            JOINT HandRight
            {
              OFFSET 1.690146 -4.425810 0.251053
              CHANNELS 3 Zrotation Xrotation Yrotation
              JOINT HandTipRight
              {
                OFFSET 2.065523 -8.271531 1.475876
                CHANNELS 3 Zrotation Xrotation Yrotation
                End Site
                {
                  OFFSET 0 0 0
                }
              }
              JOINT ThumbRight
              {
                OFFSET -2.778737 -3.012427 1.627021
                CHANNELS 3 Zrotation Xrotation Yrotation
                End Site
                {
                  OFFSET 0 0 0
                }
              }
            }
          }
        }
      }
    }
  }
  JOINT HipLeft
  {
    OFFSET -6.279358 0.236212 -0.845775
    CHANNELS 3 Zrotation Xrotation Yrotation
    JOINT KneeLeft
    {
      OFFSET 0.627950 -26.101167 4.645251
      CHANNELS 3 Zrotation Xrotation Yrotation
      JOINT AnkleLeft
      {
        OFFSET 3.193015 -32.443746 5.719313
        CHANNELS 3 Zrotation Xrotation Yrotation
        JOINT FootLeft
        {
          OFFSET -1.372699 -4.368818 -10.655507
          CHANNELS 3 Zrotation Xrotation Yrotation
          End Site
          {
            OFFSET 0 0 0
          }
        }
      }
    }
  }
  JOINT HipRight
  {
    OFFSET 7.016300 1.560097 -5.680469
    CHANNELS 3 Zrotation Xrotation Yrotation
    JOINT KneeRight
    {
      OFFSET 9.449042 -23.863570 0.809663
      CHANNELS 3 Zrotation Xrotation Yrotation
      JOINT AnkleRight
      {
        OFFSET -2.856659 -33.618743 7.642222
        CHANNELS 3 Zrotation Xrotation Yrotation
        JOINT FootRight
        {
          OFFSET -5.252989 -6.270075 -0.964397
          CHANNELS 3 Zrotation Xrotation Yrotation
          End Site
          {
            OFFSET 0 0 0
          }
        }
      }
    }
  }
}
MOTION
Frames: 14
Frame Time: 0.033333
-40.251600 64.886205 347.056313 -0.000000 0.000000 19.982762 -0.000000 0.000000 -19.982762 -0.000000 0.000000 0.000000 -0.000000 0.000000 0.000000 0.000000 0.000000 0.000000 -0.000000 0.000000 0.000000 -0.000000 0.000000 0.000000 -0.000000 0.000000 0.000000 -0.000000 0.000000 0.000000 0.000000 0.000000 0.000000 0.000000 0.000000 0.000000 -0.000000 0.000000 0.000000 -0.000000 0.000000 0.000000 -0.000000 0.000000 0.000000 -0.000000 0.000000 0.000000 0.000000 0.000000 0.000000 0.000000 0.000000 0.000000 -0.000000 0.000000 -19.982762 -0.000000 0.000000 0.000000 -0.000000 0.000000 0.000000 0.000000 0.000000 0.000000 -0.000000 0.000000 -19.982762 -0.000000 0.000000 0.000000 -0.000000 0.000000 0.000000 0.000000 0.000000 0.000000
-40.265483 64.878123 347.077170 -0.005984 0.021005 19.855137 -0.001506 -0.021789 -19.855137 -0.000000 0.000000 0.000000 -0.000000 0.000000 0.000000 0.000000 0.000000 0.000000 -0.000000 0.000000 0.000000 -0.000000 0.000000 0.000000 -0.493456 -1.143717 -0.113984 -0.381877 0.338310 0.068249 0.000000 0.000000 0.000000 0.000000 0.000000 0.000000 -0.000000 0.000000 0.000000 -0.000000 0.000000 0.000000 -0.513753 1.211499 0.439973 -2.107203 -0.939751 -0.883511 0.000000 0.000000 0.000000 0.000000 0.000000 0.000000 -0.001506 -0.021789 -19.855137 -0.000000 0.000000 0.000000 0.563808 -0.869897 -1.119957 0.000000 0.000000 0.000000 -0.001506 -0.021789 -19.855137 -0.000000 0.000000 0.000000 -1.467259 0.749183 -0.387829 0.000000 0.000000 0.000000
-40.276834 64.868758 347.098389 -0.009981 0.035823 19.747723 -0.002710 -0.037089 -19.747721 -0.000000 0.000000 0.000000 -0.000000 0.000000 0.000000 0.000000 0.000000 0.000000 -0.000000 0.000000 0.000000 -0.000000 0.000000 0.000000 -0.803516 -2.025730 -0.214621 -0.667464 0.445910 0.079901 0.000000 0.000000 0.000000 0.000000 0.000000 0.000000 -0.000000 0.000000 0.000000 -0.000000 0.000000 0.000000 -1.067657 2.212099 0.808669 -3.925923 -1.710441 -1.723970 0.000000 0.000000 0.000000 0.000000 0.000000 0.000000 -0.002710 -0.037089 -19.747721 -0.000000 0.000000 0.000000 1.258959 -1.906584 -2.563112 0.000000 0.000000 0.000000 -0.002710 -0.037089 -19.747721 -0.000000 0.000000 0.000000 -2.553880 1.373759 -0.712838 0.000000 0.000000 0.000000
-40.285651 64.858111 347.119971 -0.011994 0.044463 19.660549 -0.003665 -0.045907 -19.660546 -0.000000 0.000000 0.000000 -0.000000 0.000000 0.000000 0.000000 0.000000 0.000000 -0.000000 0.000000 0.000000 0.165611 0.991378 -0.085557 -1.102975 -3.662328 -0.231393 -0.793545 0.386598 0.028554 0.000000 0.000000 0.000000 0.000000 0.000000 0.000000 -0.000000 0.000000 0.000000 -0.000000 0.000000 0.000000 -1.654402 3.008210 1.106357 -5.446487 -2.337208 -2.490660 0.000000 0.000000 0.000000 0.000000 0.000000 0.000000 -0.003665 -0.045907 -19.660546 -0.000000 0.000000 0.000000 2.082261 -3.135900 -4.349921 0.000000 0.000000 0.000000 -0.003665 -0.045907 -19.660546 -0.000000 0.000000 0.000000 -3.268629 1.871893 -0.986020 0.000000 0.000000 0.000000
-40.291934 64.846181 347.141916 -0.012026 0.046934 19.593637 -0.004409 -0.048249 -19.593634 -0.000000 0.000000 0.000000 -0.000000 0.000000 0.000000 0.000000 0.000000 0.000000 -0.000000 0.000000 0.000000 0.229132 1.177043 -0.113543 -1.137752 -4.271044 -0.271631 -0.729054 0.212833 -0.083623 0.000000 0.000000 0.000000 0.000000 0.000000 0.000000 -0.000000 0.000000 0.000000 -0.000000 0.000000 0.000000 -2.267679 3.607829 1.333407 -6.663734 -2.845433 -3.160982 0.000000 0.000000 0.000000 0.000000 0.000000 0.000000 -0.004409 -0.048249 -19.593634 -0.000000 0.000000 0.000000 3.026182 -4.587278 -6.502100 0.000000 0.000000 0.000000 -0.004409 -0.048249 -19.593634 -0.000000 0.000000 0.000000 -3.618856 2.242902 -1.215767 0.000000 0.000000 0.000000
-40.295685 64.832969 347.164223 -0.010079 0.043242 19.546999 -0.004969 -0.044122 -19.546997 -0.000000 0.000000 0.000000 -0.000000 0.000000 0.000000 0.000000 0.000000 0.000000 -0.000000 0.000000 0.000000 0.296729 1.290473 -0.141117 -1.015460 -4.597145 -0.287759 -0.479069 -0.039227 -0.246417 0.000000 0.000000 0.000000 0.000000 0.000000 0.000000 -0.000000 0.000000 0.000000 -0.000000 0.000000 0.000000 -2.902132 4.020026 1.490331 -7.575802 -3.259214 -3.719674 0.000000 0.000000 0.000000 0.000000 0.000000 0.000000 -0.004969 -0.044122 -19.546997 -0.000000 0.000000 0.000000 4.076362 -6.291970 -9.040206 0.000000 0.000000 0.000000 -0.004969 -0.044122 -19.546997 -0.000000 0.000000 0.000000 -3.609666 2.486492 -1.407794 0.000000 0.000000 0.000000
-40.294564 64.815654 347.185927 -0.005031 0.028865 19.485855 -0.004886 -0.028890 -19.485855 -0.000000 0.000000 0.000000 -0.000000 0.000000 0.000000 0.000000 0.000000 0.000000 -0.000000 0.000000 0.000000 0.445913 1.293441 -0.195047 -1.075001 -4.501288 -0.226724 0.554929 -1.112285 -0.741098 0.000000 0.000000 0.000000 0.000000 0.000000 0.000000 -0.000000 0.000000 0.000000 -0.596810 -0.574137 0.062395 -3.165571 4.290921 1.316036 -7.695453 -3.143781 -3.789315 0.000000 0.000000 0.000000 0.000000 0.000000 0.000000 -0.004886 -0.028890 -19.485855 -0.000000 0.000000 0.000000 5.668556 -9.004653 -13.260899 0.000000 0.000000 0.000000 -0.004886 -0.028890 -19.485855 0.684631 0.536637 0.106995 -3.418208 1.916612 -1.672805 0.000000 0.000000 0.000000
-40.291424 64.794775 347.202611 0.001481 0.011180 19.472595 -0.005123 -0.010047 -19.472596 -0.000000 0.000000 0.000000 -0.000000 0.000000 0.000000 0.000000 0.000000 0.000000 -0.000000 0.000000 0.000000 0.534235 1.291481 -0.226868 -0.916494 -4.285337 -0.178147 3.463430 -1.096088 -1.306721 0.000000 0.000000 0.000000 0.000000 0.000000 0.000000 -0.000000 0.000000 0.000000 -0.654285 -0.604311 0.070557 -4.308695 4.055608 1.181723 -7.720420 -3.108294 -3.924809 0.000000 0.000000 0.000000 0.000000 0.000000 0.000000 -0.005123 -0.010047 -19.472596 -0.000000 0.000000 0.000000 3.773860 -4.290912 -8.575354 0.000000 0.000000 0.000000 -0.838979 0.088449 -19.573391 1.524943 0.815344 0.201510 -1.696766 1.511212 -1.724118 0.000000 0.000000 0.000000
-40.285576 64.773640 347.228957 0.010342 -0.010592 19.514796 -0.006210 0.013438 -19.514794 -0.000000 0.000000 0.000000 -0.000000 0.000000 0.000000 0.000000 0.000000 0.000000 -0.000000 0.000000 0.000000 0.563102 1.187923 -0.234123 -0.263562 -4.996054 -0.315871 3.024202 0.699681 -0.978170 0.000000 0.000000 0.000000 0.000000 0.000000 0.000000 -0.000000 0.000000 0.000000 -0.717030 -0.686865 0.074550 -4.748740 3.867638 1.058736 -8.078164 -3.211549 -4.078846 0.000000 0.000000 0.000000 0.000000 0.000000 0.000000 -0.006210 0.013438 -19.514794 -0.000000 0.000000 0.000000 4.453648 -5.840936 -10.170321 0.000000 0.000000 0.000000 -1.091409 0.121415 -19.653187 1.797066 0.959597 0.238845 -0.574397 1.082495 -1.625855 0.000000 0.000000 0.000000
-40.284294 64.762099 347.263052 0.018504 -0.038892 19.613239 -0.004376 0.042847 -19.613231 -0.000000 0.000000 0.000000 -0.000000 0.000000 0.000000 0.000000 0.000000 0.000000 -0.000000 0.000000 0.000000 0.542328 0.984254 -0.220443 0.860692 -4.319640 -0.322146 1.640598 -1.438690 -1.201445 0.000000 0.000000 0.000000 0.000000 0.000000 0.000000 -0.000000 0.000000 0.000000 -0.792256 -0.736210 0.084139 -4.811176 3.781819 0.990649 -8.536904 -3.125285 -4.156551 0.000000 0.000000 0.000000 0.000000 0.000000 0.000000 -0.004376 0.042847 -19.613231 -0.000000 0.000000 0.000000 6.429590 -10.738998 -15.453292 0.000000 0.000000 0.000000 -1.240812 0.106532 -19.793171 1.967871 1.119259 0.282044 -0.464241 1.170856 -1.784548 0.000000 0.000000 0.000000
-40.270088 64.751211 347.301130 0.051942 -0.068686 19.743020 -0.025686 0.082194 -19.742971 -0.000000 0.000000 0.000000 -0.000000 0.000000 0.000000 0.000000 0.000000 0.000000 -0.000000 0.000000 0.000000 0.561452 0.772845 -0.220829 1.269223 -3.678140 -0.296724 0.506507 -1.144027 -0.880544 0.000000 0.000000 0.000000 0.000000 0.000000 0.000000 0.657799 -0.650067 -0.160947 -1.303142 -0.765737 0.165875 -4.682223 5.198927 1.474833 -8.922892 -3.616040 -4.563305 0.000000 0.000000 0.000000 0.000000 0.000000 0.000000 -0.025686 0.082194 -19.742971 -0.111441 0.837553 0.063688 7.589704 -16.091222 -18.788861 0.000000 0.000000 0.000000 -1.214843 0.019123 -19.962544 1.796012 1.287048 0.295811 -0.420502 1.357476 -1.961242 0.000000 0.000000 0.000000
-40.228725 64.726757 347.349923 0.116390 -0.114085 19.794679 -0.070878 0.146759 -19.794472 -0.000000 0.000000 0.000000 -0.000000 0.000000 0.000000 0.000000 0.000000 0.000000 -0.000000 0.000000 0.000000 -0.000000 0.000000 0.000000 2.637639 -1.881628 -0.476245 0.875361 -0.899150 -0.824154 0.000000 0.000000 0.000000 0.000000 0.000000 0.000000 0.664925 -0.681320 -0.168614 -1.146552 -0.821164 0.133540 -4.347380 6.096881 1.874284 -10.445113 -3.857463 -5.174790 0.000000 0.000000 0.000000 0.000000 0.000000 0.000000 -0.070878 0.146759 -19.794472 -0.102130 0.866421 0.068137 8.183813 -19.329814 -21.248272 0.000000 0.000000 0.000000 -1.116598 -0.095625 -20.055905 1.429274 1.484761 0.293045 -0.255658 1.491133 -2.091089 0.000000 0.000000 0.000000
-40.163220 64.706199 347.379755 0.196530 -0.144708 19.850468 -0.135716 0.202844 -19.849979 -0.000000 0.000000 0.000000 -0.000000 0.000000 0.000000 0.000000 0.000000 0.000000 -0.000000 0.000000 0.000000 -0.000000 0.000000 0.000000 2.875533 -1.878436 -0.495343 1.390966 -1.426230 -1.055597 0.000000 0.000000 0.000000 0.000000 0.000000 0.000000 -0.000000 0.000000 0.000000 -0.347862 -1.304283 -0.055423 -4.754452 7.654448 2.638692 -10.565281 -4.738957 -6.021642 0.000000 0.000000 0.000000 0.000000 0.000000 0.000000 -0.135716 0.202844 -19.849979 -0.105652 0.913625 0.072244 8.198924 -21.707754 -21.601773 0.000000 0.000000 0.000000 -0.135716 0.202844 -19.849979 -0.000000 0.000000 0.000000 0.978295 1.802325 -1.683802 0.000000 0.000000 0.000000
-40.276394 64.705740 347.394227 0.049967 -0.146571 19.901674 0.002911 0.154827 -19.901614 -0.000000 0.000000 0.000000 -0.000000 0.000000 0.000000 0.000000 0.000000 0.000000 -0.000000 0.000000 0.000000 0.841165 0.063088 -0.297390 3.501298 -2.978413 -0.418730 -1.051322 -1.673010 -0.875019 0.000000 0.000000 0.000000 0.000000 0.000000 0.000000 -0.000000 0.000000 0.000000 -0.000000 0.000000 0.000000 -6.148618 7.200751 2.859899 -8.799809 -4.156865 -5.651906 0.000000 0.000000 0.000000 0.000000 0.000000 0.000000 0.002911 0.154827 -19.901614 -0.181182 0.954282 0.063592 6.664301 -17.702120 -15.169741 0.000000 0.000000 0.000000 -2.845352 -2.202405 -21.285551 2.524606 5.347451 1.223924 -0.867496 3.024551 -4.257464 0.000000 0.000000 0.000000
